<svg width="1024" height="1024" xmlns="http://www.w3.org/2000/svg" version="1.1" class="icon">

 <g>
  <title>background</title>
  <rect fill="none" id="canvas_background" height="1218" width="2240" y="-1" x="-1"/>
 </g>
 <g>
  <title>Layer 1</title>
  <path id="svg_1" fill="#2B5367" d="m954.18182,861.09091l-884.36364,0c-25.6,0 -46.54545,-20.94546 -46.54545,-46.54545l0,-605.09092l977.45454,0l0,605.09091c0,25.6 -20.94545,46.54546 -46.54545,46.54546z"/>
  <path id="svg_2" fill="#ECF0F9" d="m1000.72727,209.45454l-977.45454,0l0,-93.0909c0,-25.6 20.94545,-46.54546 46.54545,-46.54546l884.36364,0c25.6,0 46.54545,20.94546 46.54545,46.54546l0,93.0909z"/>
  <path id="svg_3" fill="#0B3A5B" d="m954.18182,46.54545l-884.36364,0c-39.56363,0 -69.81818,30.25455 -69.81818,69.81819l0,698.18182c0,39.56363 30.25455,69.81818 69.81818,69.81818l884.36364,0c39.56363,0 69.81818,-30.25455 69.81818,-69.81818l0,-698.18182c0,-39.56364 -30.25455,-69.81819 -69.81818,-69.81818l0,-0.00001zm-907.63637,69.81819c0,-13.96364 9.3091,-23.27273 23.27273,-23.27273l884.36364,0c13.96363,0 23.27273,9.30909 23.27273,23.27273l0,69.81818l-930.9091,0l0,-69.81818zm930.90909,698.18182c0,13.96363 -9.30909,23.27272 -23.27272,23.27272l-884.36364,0c-13.96363,0 -23.27273,-9.30909 -23.27273,-23.27272l0,-581.81819l930.90909,0l0,581.81818l0,0.00001z"/>
  <path id="svg_4" fill="#0B3A5B" d="m116.36364,139.63636m-23.27273,0a23.27273,23.27273 0 1 0 46.54545,0a23.27273,23.27273 0 1 0 -46.54545,0z"/>
  <path id="svg_5" fill="#0B3A5B" d="m209.45454,139.63636m-23.27272,0a23.27273,23.27273 0 1 0 46.54545,0a23.27273,23.27273 0 1 0 -46.54545,0z"/>
  <path id="svg_6" fill="#0B3A5B" d="m302.54546,139.63636m-23.27273,0a23.27273,23.27273 0 1 0 46.54545,0a23.27273,23.27273 0 1 0 -46.54545,0z"/>
  <path id="svg_7" fill="#FFFFFF" d="m93.09091,290.90909c0,-6.98182 4.65454,-11.63636 11.63636,-11.63636l139.63637,0c6.98181,0 11.63636,4.65454 11.63636,11.63636s-4.65455,11.63637 -11.63636,11.63637l-139.63637,0c-6.98182,0 -11.63636,-4.65455 -11.63636,-11.63637zm209.45455,488.72727c0,-6.98181 4.65454,-11.63636 11.63636,-11.63636l139.63636,0c6.98182,0 11.63637,4.65454 11.63636,11.63636s-4.65454,11.63637 -11.63636,11.63637l-139.63636,0c-6.98182,0 -11.63637,-4.65455 -11.63636,-11.63637zm-139.63637,-418.90909c0,-6.98181 4.65455,-11.63636 11.63637,-11.63636l139.63636,0c6.98182,0 11.63636,4.65454 11.63636,11.63636s-4.65454,11.63637 -11.63636,11.63637l-139.63636,0c-6.98182,0 -11.63637,-4.65455 -11.63637,-11.63637zm325.81818,349.09091c0,-6.98182 4.65455,-11.63636 11.63637,-11.63636l139.63636,0c6.98182,0 11.63636,4.65454 11.63636,11.63636s-4.65454,11.63637 -11.63636,11.63636l-139.63636,0c-6.98182,0 -11.63637,-4.65454 -11.63637,-11.63636zm162.90909,-349.09091c0,-6.98181 4.65455,-11.63636 11.63637,-11.63636l139.63636,0c6.98182,0 11.63636,4.65454 11.63636,11.63636s-4.65454,11.63637 -11.63636,11.63637l-139.63636,0c-6.98182,0 -11.63637,-4.65455 -11.63637,-11.63637zm-279.27272,209.45455c0,-6.98182 4.65454,-11.63637 11.63636,-11.63636l139.63636,0c6.98182,0 11.63637,4.65454 11.63637,11.63636s-4.65455,11.63636 -11.63637,11.63636l-139.63636,0c-6.98182,0 -11.63636,-4.65454 -11.63636,-11.63636z"/>
  <path id="svg_8" fill="#FFCB5D" d="m488.72727,430.54546c0,-6.98182 4.65455,-11.63637 11.63637,-11.63637l139.63636,0c6.98182,0 11.63636,4.65455 11.63636,11.63637s-4.65454,11.63636 -11.63636,11.63636l-139.63636,0c-6.98182,0 -11.63637,-4.65455 -11.63637,-11.63636zm-325.81818,139.63636c0,-6.98182 4.65455,-11.63637 11.63637,-11.63636l139.63636,0c6.98182,0 11.63636,4.65454 11.63636,11.63636s-4.65454,11.63636 -11.63636,11.63636l-139.63636,0c-6.98182,0 -11.63637,-4.65454 -11.63637,-11.63636zm349.09091,209.45454c0,-6.98181 4.65454,-11.63636 11.63636,-11.63636l93.09091,0c6.98182,0 11.63637,4.65454 11.63637,11.63636s-4.65455,11.63637 -11.63637,11.63637l-93.09091,0c-6.98181,0 -11.63636,-4.65455 -11.63636,-11.63637z"/>
  <path id="svg_9" fill="#F04D4E" d="m372.36364,360.72727c0,-6.98181 4.65454,-11.63636 11.63636,-11.63636l69.81818,0c6.98182,0 11.63637,4.65454 11.63636,11.63636s-4.65454,11.63637 -11.63636,11.63637l-69.81818,0c-6.98182,0 -11.63636,-4.65455 -11.63636,-11.63637z"/>
  <path id="svg_10" fill="#FFFFFF" d="m512,360.72727c0,-6.98181 4.65454,-11.63636 11.63636,-11.63636l69.81818,0c6.98182,0 11.63637,4.65454 11.63637,11.63636s-4.65455,11.63637 -11.63637,11.63637l-69.81818,0c-6.98181,0 -11.63636,-4.65455 -11.63636,-11.63637zm-349.09091,279.27273c0,-6.98182 4.65455,-11.63636 11.63637,-11.63636l69.81818,0c6.98181,0 11.63636,4.65454 11.63636,11.63636s-4.65455,11.63636 -11.63636,11.63636l-69.81818,0c-6.98182,0 -11.63637,-4.65454 -11.63637,-11.63636zm-69.81818,-139.63636c0,-6.98182 4.65454,-11.63637 11.63636,-11.63637l69.81819,0c6.98181,0 11.63636,4.65455 11.63636,11.63637s-4.65455,11.63636 -11.63636,11.63636l-69.81819,0c-6.98181,0 -11.63636,-4.65454 -11.63636,-11.63636z"/>
  <path id="svg_11" fill="#F04D4E" d="m628.36364,640c0,-6.98182 4.65454,-11.63636 11.63636,-11.63636l69.81818,0c6.98182,0 11.63637,4.65454 11.63636,11.63636s-4.65454,11.63636 -11.63636,11.63636l-69.81818,0c-6.98182,0 -11.63636,-4.65454 -11.63636,-11.63636zm-465.45455,139.63636c0,-6.98181 4.65455,-11.63636 11.63637,-11.63636l69.81818,0c6.98181,0 11.63636,4.65454 11.63636,11.63636s-4.65455,11.63637 -11.63636,11.63637l-69.81818,0c-6.98182,0 -11.63637,-4.65455 -11.63637,-11.63637z"/>
  <path id="svg_12" fill="#FFFFFF" d="m162.90909,430.54546c0,-6.98182 4.65455,-11.63637 11.63637,-11.63637l256,0c6.98181,0 11.63636,4.65455 11.63636,11.63637s-4.65455,11.63636 -11.63636,11.63636l-256,0c-6.98182,0 -11.63637,-4.65455 -11.63637,-11.63636zm139.63637,209.45454c0,-6.98182 4.65454,-11.63636 11.63636,-11.63636l256,0c6.98182,0 11.63636,4.65454 11.63636,11.63636s-4.65454,11.63636 -11.63636,11.63636l-256,0c-6.98182,0 -11.63637,-4.65454 -11.63636,-11.63636zm-139.63637,69.81818c0,-6.98182 4.65455,-11.63636 11.63637,-11.63636l256,0c6.98181,0 11.63636,4.65454 11.63636,11.63636s-4.65455,11.63637 -11.63636,11.63636l-256,0c-6.98182,0 -11.63637,-4.65454 -11.63637,-11.63636z"/>
 </g>
</svg>